<?xml version="1.0" encoding="UTF-8"?>
<svg id="Capa_2" data-name="Capa 2" xmlns="http://www.w3.org/2000/svg" xmlns:xlink="http://www.w3.org/1999/xlink" viewBox="0 0 685.88 146.15">
  <defs>
    <style>
      .cls-1 {
        filter: url(#drop-shadow-5);
      }

      .cls-1, .cls-2, .cls-3, .cls-4, .cls-5, .cls-6, .cls-7 {
        fill: #6fac89;
      }

      .cls-2 {
        filter: url(#drop-shadow-3);
      }

      .cls-8 {
        filter: url(#drop-shadow-4);
      }

      .cls-3 {
        filter: url(#drop-shadow-1);
      }

      .cls-5 {
        filter: url(#drop-shadow-2);
      }

      .cls-6 {
        filter: url(#drop-shadow-7);
      }

      .cls-9 {
        fill: #735214;
        stroke: #735216;
        stroke-miterlimit: 10;
        stroke-width: .2px;
      }

      .cls-7 {
        filter: url(#drop-shadow-6);
      }
    </style>
    <filter id="drop-shadow-1" x="369.97" y="16.8" width="74.44" height="113.99" filterUnits="userSpaceOnUse">
      <feOffset dx="-3" dy="-2"/>
      <feGaussianBlur result="blur" stdDeviation="0"/>
      <feFlood flood-color="#000" flood-opacity=".75"/>
      <feComposite in2="blur" operator="in"/>
      <feComposite in="SourceGraphic"/>
    </filter>
    <filter id="drop-shadow-2" x="548.44" y="17.29" width="61.75" height="112.76" filterUnits="userSpaceOnUse">
      <feOffset dx="-3" dy="-2"/>
      <feGaussianBlur result="blur-2" stdDeviation="0"/>
      <feFlood flood-color="#000" flood-opacity=".75"/>
      <feComposite in2="blur-2" operator="in"/>
      <feComposite in="SourceGraphic"/>
    </filter>
    <filter id="drop-shadow-3" x="620.32" y="17.29" width="65.56" height="113.5" filterUnits="userSpaceOnUse">
      <feOffset dx="-3" dy="-2"/>
      <feGaussianBlur result="blur-3" stdDeviation="0"/>
      <feFlood flood-color="#000" flood-opacity=".75"/>
      <feComposite in2="blur-3" operator="in"/>
      <feComposite in="SourceGraphic"/>
    </filter>
    <filter id="drop-shadow-4" x="454.73" y="17.41" width="75.61" height="112.15" filterUnits="userSpaceOnUse">
      <feOffset dx="-3" dy="-2"/>
      <feGaussianBlur result="blur-4" stdDeviation="0"/>
      <feFlood flood-color="#000" flood-opacity=".75"/>
      <feComposite in2="blur-4" operator="in"/>
      <feComposite in="SourceGraphic"/>
    </filter>
    <filter id="drop-shadow-5" x="128.33" y="19.13" width="63.47" height="112.27" filterUnits="userSpaceOnUse">
      <feOffset dx="-3" dy="-2"/>
      <feGaussianBlur result="blur-5" stdDeviation="0"/>
      <feFlood flood-color="#000" flood-opacity=".75"/>
      <feComposite in2="blur-5" operator="in"/>
      <feComposite in="SourceGraphic"/>
    </filter>
    <filter id="drop-shadow-6" x="198.37" y="17.78" width="75.98" height="113.76" filterUnits="userSpaceOnUse">
      <feOffset dx="-3" dy="-2"/>
      <feGaussianBlur result="blur-6" stdDeviation="0"/>
      <feFlood flood-color="#000" flood-opacity=".75"/>
      <feComposite in2="blur-6" operator="in"/>
      <feComposite in="SourceGraphic"/>
    </filter>
    <filter id="drop-shadow-7" x="293.31" y="17.53" width="66.66" height="112.39" filterUnits="userSpaceOnUse">
      <feOffset dx="-3" dy="-2"/>
      <feGaussianBlur result="blur-7" stdDeviation="0"/>
      <feFlood flood-color="#000" flood-opacity=".75"/>
      <feComposite in2="blur-7" operator="in"/>
      <feComposite in="SourceGraphic"/>
    </filter>
  </defs>
  <g id="Capa_1-2" data-name="Capa 1">
    <g>
      <path class="cls-3" d="M403.39,47.87v82.18c.12,0-21.83,0-21.83,0l.37-78.26c-.25-3.31-.86-6.01-1.47-7.97-.49-1.72-1.35-4.05-3.07-6.87-1.59-2.33-3.19-4.05-4.42-5.03l18.52-13.12c1.23.98,2.21,1.96,2.94,2.7.98,1.1,1.72,1.96,2.09,2.58.98,1.35,1.59,2.33,1.96,3.19.49.86.86,1.72,1.23,2.21,2.33-2.21,4.42-3.8,6.01-4.91.61-.49,1.72-1.23,3.31-2.21,1.59-.98,2.7-1.72,4.29-2.33,1.84-.74,2.82-1.1,3.93-1.1.61,0,1.35.25,4.42,2.33,1.47.98,2.09,1.59,4.29,3.31,2.7,2.21,2.7,1.96,4.42,3.43,1.96,1.59,3.07,2.45,4.42,3.68,1.59,1.47,2.94,2.7,4.42,4.42,1.35,1.72,2.33,3.19,2.94,4.29,0,0,1.35,2.7,1.84,6.13.49,4.42.61,38.15,0,84.27h-22.69c0-.12.37-82.18.37-82.18-.25-.61-.74-1.47-1.35-2.58-.74-1.23-1.59-2.7-3.07-4.29-1.23-1.35-1.96-2.09-3.19-2.21-1.1-.12-1.96.25-3.31,1.1-1.84.98-2.94,2.09-3.68,2.82-.86.86-1.59,1.72-2.33,2.58-.61.74-.98,1.23-1.35,1.72h0v.12Z"/>
      <polygon class="cls-5" points="573.4 19.53 551.44 34.25 551.44 130.05 610.2 130.05 610.2 111.04 573.15 111.04 573.15 82.46 601.37 82.46 601.37 62.71 573.4 62.59 573.4 42.23 579.04 38.55 608.11 38.67 608.23 19.29 573.4 19.53"/>
      <path class="cls-2" d="M623.44,21.25l20.61-.49.86,69.06c.25,1.84.74,3.8,1.47,6.01,1.72,5.27,4.29,9.2,6.5,11.9.25.25.98.98,2.21.98s2.21-.86,2.94-1.72c3.31-3.56,4.66-6.26,4.66-6.26,1.1-2.21,2.45-5.52,3.07-10.06,0-2.94.25-6.75.25-11.04,0-6.5-.25-11.28-.37-15.33-.37-8.59-.86-12.39-1.23-15.46-.74-5.03-1.35-7.48-2.82-10.18-1.59-2.94-3.56-4.91-4.91-6.26,5.77-4.42,11.65-8.71,17.54-13.12,1.1,1.1,2.82,2.7,4.42,4.91,6.87,9.2,7.11,19.26,7.24,39.5v29.93c-1.23,5.27-2.94,9.44-4.29,12.39,0,0-7.73,14.84-21.59,23.43-.61.37-2.33,1.35-4.78,1.35-2.58,0-4.29-1.23-4.91-1.59-5.52-3.31-16.31-10.92-22.69-24.78-1.96-4.42-3.07-8.46-3.8-12.14-.12-23.92-.25-47.35-.49-71.27h0l.12.25Z"/>
      <g class="cls-8">
        <path class="cls-4" d="M530.22,99.51c0-17.05-.12-34.1-.25-51.15-3.93-5.76-7.73-10.3-10.55-13.49-2.09-2.33-4.17-4.54-7.24-7.24-3.93-3.31-7.73-5.64-10.55-7.24-.61-.12-1.23-.25-1.84-.37-2.58-.25-4.66.74-5.77,1.35-3.56,2.09-7.24,4.29-10.79,6.38-.37-1.23-1.1-2.82-2.33-4.54s-2.58-2.94-3.56-3.8l-19.63,14.23c1.84,1.84,4.29,4.66,6.26,8.71,1.35,2.7,2.09,5.27,2.45,7.24v79.97h33.73c7.11-3.68,12.39-7.48,15.95-10.3,2.7-2.21,4.17-3.56,6.62-6.13,5.15-5.15,6.62-7.73,7.24-10.43.37-1.35.37-2.58.37-3.43l-.12.25ZM509,98.65v.49c0,.49,0,1.1-.25,1.84-.37,1.23-.98,2.45-2.21,3.93-2.09,2.58-4.66,4.54-6.26,5.52h-12.63V44.8c2.58-1.35,4.91-2.21,6.5-2.7,3.31-.98,4.66-.74,5.4-.49,1.23.37,2.09.98,3.07,1.59.37.25,2.09,1.59,3.68,3.8,1.35,1.96,1.96,3.93,2.33,5.4,0,1.72.25,4.29.37,7.48.12,4.42,0,6.5,0,11.41v27.35h0Z"/>
      </g>
      <path class="cls-1" d="M169.97,21.13h21.83c-.25,25.02-.49,49.92-.61,74.94,0,1.84-.37,4.66-1.59,7.73-.74,1.84-1.47,3.19-2.7,4.91-2.45,3.68-4.54,6.26-8.1,10.18-3.56,4.05-5.15,5.52-6.62,6.75-1.35,1.23-2.58,2.09-3.56,2.7-1.59,1.1-5.03,3.07-9.57,3.07-.74,0-2.33,0-4.66-.61-3.07-.86-6.62-2.58-12.02-7.85-3.07-2.94-7.11-7.48-11.04-13.86,5.64-3.93,11.28-7.85,16.93-11.78,1.35,1.84,2.94,3.8,4.78,5.76,1.47,1.47,2.94,2.82,4.29,4.05.25.12.86.61,1.72.61s1.47-.37,1.84-.49c5.76-3.19,7.97-9.81,7.97-9.81.37-1.1.86-2.82.98-5.03V21.13h.12Z"/>
      <path class="cls-7" d="M253.14,21.5l21.22-.25-.25,79.85-3.31,7.24c-2.33,3.8-6.01,8.71-11.65,13.62-4.78,4.17-9.44,6.87-13.12,8.71-.74.37-2.09.98-3.93.86-1.59,0-2.82-.61-3.56-.86-1.72-.86-3.31-1.96-5.03-3.07-10.79-7.24-17.66-16.56-22.08-24.29h0c.25,0-1.59-53.11-1.59-53.11-.49-2.33-1.23-5.15-2.58-8.34-1.84-4.17-4.05-7.24-5.89-9.44,6.01-4.17,11.9-8.46,17.91-12.63,1.47,1.23,2.94,2.82,4.42,4.54,5.27,6.75,6.62,13.98,6.99,18.15.25,18.03.61,36.18.86,54.22.25.98.74,2.45,1.47,4.05,1.72,3.43,3.93,5.4,4.66,6.01,1.84,1.59,3.07,2.58,4.78,2.58,1.96,0,3.31-1.35,4.91-2.82,3.31-3.07,4.29-6.62,4.66-7.97.37-1.23.49-2.33.61-3.07,0-24.65.25-49.31.37-73.84h0l.12-.12Z"/>
      <path class="cls-9" d="M108.89,60.01s-3.31-17.54-7.11-25.88c-.49-.98-1.1-2.58-2.45-5.89-.86-1.96-1.1-2.82-1.35-3.93-.37-2.21,0-4.17.49-5.4,1.1-4.42,2.21-8.83,3.19-13.37,2.21-5.27,0-6.13-4.17-5.03l-6.01,3.8c-2.45,1.72-3.31,3.56-2.33,0,0-1.23-.61-2.45-1.59-3.07-1.47-.86-2.94-.37-3.07-.25l-4.54,2.33c-.74.37-1.84.98-3.19,1.96-1.84,1.23-2.58,1.84-3.31,1.59s-.61-1.23-1.84-2.21c0,0-.74-.61-1.96-.98-1.96-.61-4.54.25-6.62,2.21-1.23,1.1-2.58,2.09-3.8,3.19-1.96,1.84-2.82,1.96-3.07,1.84-.37-.25,0-1.1-.37-2.7,0-.37-.49-1.59-1.72-2.45-.61-.49-1.35-.74-1.72-.86-2.45-.74-5.03.49-5.76.86l-8.1,7.24c-.86.86-1.23.98-1.47.86-.49-.25-.25-1.23-.98-2.58-.25-.37-.49-.74-.74-.86-.37-.12-.86-.37-1.23-.49-1.1-.12-2.45-.12-4.17.12-.98.25-1.72.49-2.45.74-2.82,1.1-6.62,3.07-10.55,6.13-4.42,3.56-7.24,7.24-9.08,9.94-1.96,3.19-4.29,7.73-5.89,13.49C-.03,47.5-.03,53.76.21,57.8c.25,5.52.86,11.65,1.96,18.4,1.1,6.62,2.58,12.51,4.17,17.79,1.23,4.78,3.19,10.55,6.13,16.8,3.56,7.36,7.48,13.25,11.04,17.66,1.59,1.96,3.68,4.29,6.38,6.62,3.43,2.94,6.87,5.03,9.57,6.38h0c14.96,6.5,30.3,5.89,45.75-.49,5.52-2.21,9.44-3.68,13-6.38,5.27-3.93,7.97-8.22,8.59-9.32,2.82-4.66,3.93-9.08,4.54-12.51,3.31-18.64-.74-43.42-2.45-52.74h0ZM108.15,105.4c-.12,4.66-.49,10.18-3.68,16.07-1.1,2.09-2.21,3.56-3.07,4.54-.86.98-2.21,2.33-3.93,3.8-2.09,1.72-6.75,5.27-16.56,8.22-9.32,2.82-18.28,3.43-25.51,3.31-3.93-.49-11.04-1.84-18.28-6.38-5.4-3.43-8.95-7.24-11.16-10.06-2.7-3.56-6.38-8.83-9.57-15.82,0,0,0-.12-.12-.37,0,0-1.47-3.31-2.82-6.87-6.26-17.42-7.73-34.1-7.73-34.1-.25-2.94-.49-6.38-.61-8.95-.25-4.78-.37-7.24-.25-9.57,0-1.35.37-5.27,1.96-10.06,0-.12.25-.74.49-1.47.98-2.82,3.56-9.94,10.18-16.07,2.33-2.09,4.42-3.43,5.27-4.05,2.21-1.35,4.29-2.33,6.01-2.94.86-.25,1.72-.49,2.21-.61.98-.25,1.35-.25,1.59,0,.49.25.49.74.98,1.72.37.74.61,1.35.98,1.72.25.25.61.74,1.23,1.1.25.12.86.49,1.47.61,1.1,0,1.96-.61,2.45-.98,2.33-1.96,6.62-6.75,9.2-8.83.49-.37,1.23-.98,1.84-.74s.86,1.23.86,1.59c.12,1.1.37,2.09.49,3.19,0,.25,0,1.23.86,1.96.74.61,1.72.61,2.21.61,1.35,0,2.21-.61,3.56-1.47,2.7-1.84,5.03-3.68,5.64-4.17.86-.74,1.84-1.35,2.82-1.96.98-.74,1.59-1.35,1.96-1.1.25.12.25.61.49,1.23.12.61.61,1.35,1.72,2.21.25.25.74.61,1.47.74.98.25,1.72,0,2.09-.25,2.09-.98,4.05-2.21,6.26-3.31.61-.37,1.35-.74,1.96-1.1.74-.49.98-.61,1.1-.49.49.25-.25,1.72.25,3.19.25.74.74,1.23,1.1,1.59.49.12,1.47.37,2.7.25.86,0,1.59-.37,2.09-.61.98-.49,1.84-.98,2.33-1.35.61-.37,1.23-.86,2.58-1.72,1.23-.86,1.84-1.23,2.09-1.1.12,0,.25.49-.37,1.84-.49.98-.49,1.59-.86,2.45-.25.61-.49,1.59-1.1,3.43-.49,1.59-.74,2.45-.86,3.19-.25,1.35-.25,2.33-.37,2.94v3.56c.25,1.96.98,2.82.61,3.19-.25.25-.86.25-2.58-.86-.61-.49-1.59-1.1-2.94-1.47-.61-.12-1.96-.49-3.43,0-.49.12-1.47.37-2.33,1.23-.61.61-.86,1.1-1.47,1.1s-.61-.25-1.23-.74c-.61-.49-1.1-.86-1.47-1.1-.37-.12-.86-.37-1.35-.61-.25,0-2.09-.74-4.05-1.23-2.09-.49-3.8-.37-6.5-.49-2.21,0-4.17,0-6.01.25-1.47.25-3.07.74-4.66,1.1-1.72.49-3.43,1.1-4.91,1.72-.74-.61-2.33-1.84-4.78-2.21-2.09-.37-3.8,0-4.66.25-2.58.86-6.13,2.21-9.81,4.91-2.94,2.09-5.15,4.29-6.62,6.13-1.23,2.09-2.58,4.91-3.56,8.46-1.35,4.66-1.35,8.83-1.1,11.65.25,2.58.61,5.15,1.1,7.85,2.7,15.33,8.83,27.72,14.84,36.8.25,2.45.37,4.91.61,7.36.49,1.35,1.23,3.31,2.7,5.27,1.35,1.96,2.82,3.31,4.05,4.17,2.45,1.47,5.64,3.07,9.44,4.29,1.59.49,3.19.86,4.66,1.1h14.11c1.96,0,4.42-.37,7.11-1.1,1.59-.49,3.07-.98,4.29-1.59,1.72-.49,6.26-1.96,9.69-6.13,1.96-2.33,2.94-4.78,3.31-6.38v-3.68c0-.37-.25-1.47-1.23-2.45-.61-.61-1.35-.86-1.72-.98-17.17-.25-34.34-.61-51.52-.98.37-1.84,1.23-5.03,3.68-8.34,1.84-2.45,3.93-4.05,5.27-4.91.12-.12.74-.74,1.59-.74,1.1,0,1.96.61,2.09.74.74.49,1.35,1.1,2.09,1.59.37.12.98.25,1.72.25s1.23-.12,1.59-.25l.74-.74s.61-.37,1.1-.25c.37,0,.61.25.61.25.86.74,1.84,1.47,3.07,2.21,1.23.74,2.33,1.23,3.31,1.72.61.12,1.47.25,2.45.37,1.23,0,2.21-.12,2.94-.37.37,0,1.72-.25,2.82-1.35,1.35-1.23,1.47-2.82,1.47-3.19.25-1.1.49-2.21.49-3.68.12-2.58-.25-4.66-.61-6.26-1.59-7.48-3.31-15.21-5.27-23.06-1.84-7.24-3.68-14.11-5.64-20.73-.25-1.59-1.84-2.58-3.19-2.21-1.23.37-1.96,1.84-1.59,3.31h0l6.38,23.55c1.59,6.87,3.07,13.62,4.66,20.48.25.98.37,2.09.37,3.31,0,1.72,0,3.31-.37,4.42-.37.25-1.35.74-2.7.74s-2.33-.61-2.7-.86l-6.01-4.17h-2.7c-.25.37-.61.61-.98.86-.12,0-.49.25-1.1.25-.49,0-.86-.25-.98-.37-.49-.25-.98-.49-1.47-.74-.49-.25-1.47-.74-2.7-.74s-2.82.74-3.31,1.1c-1.35.74-2.94,1.84-4.54,3.31-2.58,2.45-4.29,4.91-5.27,6.75-.12.12-.37.37-.49.74-.61.98-.49,1.84-.74,1.84-.12,0-.61-.25-1.35-2.09-3.8-6.87-7.73-15.46-9.94-26-.61-2.58-.98-5.03-1.35-7.48-.49-3.07-.86-7.85.61-13.37.74-2.45,1.59-4.54,2.45-6.26.98-1.59,2.94-4.17,6.26-6.38,4.91-3.19,9.81-3.43,11.9-3.43-.37.49-.61.98-.98,1.47-1.72,2.7-3.31,5.4-5.03,7.97-.61.86-1.72,2.7-2.09,5.27-.25,1.96,0,3.68.37,4.66.25.74.98,2.09,2.33,3.31,1.72,1.47,3.68,1.84,4.42,1.96s2.33.25,4.05-.25c2.33-.74,3.68-2.21,4.17-2.82.74-.98,1.72-2.7,2.21-5.03.74-2.82.37-5.15,0-8.83-.25-1.72-.61-4.05-1.35-6.75,1.1-.49,2.33-.86,3.56-1.1,4.78-1.23,9.08-.86,12.02-.37.86,0,1.84.25,2.94.61,1.84.61,3.31,1.47,4.42,2.21-.74,1.1-1.72,2.58-2.45,4.42s-1.23,3.56-1.35,4.91c-.25.98-.49,2.82,0,4.91.25.74.61,2.09,1.72,3.31.86.86,1.72,1.35,2.33,1.59.98.37,2.45.86,4.29.98,2.45,0,4.42-.49,5.52-.98.49-.37,1.59-1.23,2.33-2.82.98-2.21.49-4.17.25-4.66-.74-2.09-1.72-4.29-2.94-6.62-1.1-1.96-2.09-3.8-3.19-5.27.86-.25,2.09-.49,3.43-.49,2.45,0,4.29,1.1,5.27,1.72,4.05,4.54,6.5,9.08,7.97,12.88.74,1.84,1.84,4.78,3.68,16.44.74,4.42,1.47,9.57,2.21,15.21.61,5.89,1.47,17.29,1.1,29.56l-.12-.61ZM82.76,36.46l2.82,5.89c.37,1.47.49,2.82-.12,2.94-1.96.12-3.93,0-5.52-.12-.86.12-1.1-.74-.86-2.58l1.1-6.13h0c.25-3.07,1.23-2.94,2.7,0h-.12ZM51.36,44.8c0,1.47-.74,2.45-2.45,2.82-1.35.25-2.58.25-3.93,0-.49,0-.98-.49-1.35-1.47v-3.19c0-.61,4.05-8.34,4.17-8.59h0c.49-.74,3.19-4.91,3.31,0v10.3l.25.12ZM41.67,102.94l50.9,1.35c-.74,1.47-1.84,3.31-3.43,5.15-4.42,4.66-9.94,5.76-12.02,6.01-3.07.61-6.99,1.1-11.41,1.1-4.05,0-7.6-.37-10.43-.98-1.35-.25-6.99-1.23-10.67-6.26-1.84-2.45-2.45-4.91-2.82-6.5l-.12.12Z"/>
      <path class="cls-6" d="M359.24,49.83c-.61-1.96-1.47-3.31-2.21-4.42-7.36-10.18-13.98-17.42-17.79-20.48,0,0-3.19-2.45-8.46-4.78-.61-.25-1.72-.61-3.19-.61-1.1,0-2.09.25-2.7.49-3.8,1.96-8.46,4.78-13.25,8.83-6.01,5.15-10.18,10.43-13,14.6-.61.98-1.35,2.45-1.84,4.42-.49,1.72-.49,3.31-.49,4.42,0,25.76,0,51.64.12,77.52,6.62,0,13.37,0,19.99-.12.12-7.6.25-15.33.49-22.94h20.97v23.18h22.08V54.86c0-1.23-.25-2.94-.86-4.91l.12-.12ZM317.78,87.73h-.25c.12-11.53.37-23.06.49-34.59.49-1.47,1.23-3.43,2.58-5.4,1.72-2.58,3.68-4.29,5.03-5.4.12-.12.86-.61,1.84-.61s1.72.49,1.84.61c1.23.86,2.94,2.33,4.54,4.42,1.84,2.45,2.82,4.66,3.31,6.38l.25,34.71h-19.63v-.12Z"/>
    </g>
  </g>
</svg>